# xmcd
#
# Track frame offsets:
#	150
#	21072
#	39190
#	59815
#	77162
#	97005
#	113845
#	134885
#	149302
#	170187
#	189117
#	208162
#
# Disc length: 3078 seconds
#
# Revision: 17
# Processed by: cddbd v1.5.2PL0 Copyright (c) Steve Scherf et al.
# Submitted via: Jack! The Knife 20 Magnifico
#
DISCID=b20c040c
DTITLE=Bunbury - Radical Sonora
DYEAR=1997
DGENRE=Rock
TTITLE0=Big-Bang
TTITLE1=Negativo
TTITLE2=Encadenados
TTITLE3=Contracorriente
TTITLE4=Planeta Sur
TTITLE5=Alicia (Expulsada Al Pais De Las Maravillas)
TTITLE6=Salomé
TTITLE7=Servidor De Nadie
TTITLE8=Despacio
TTITLE9=Polen
TTITLE10=Nueve
TTITLE11=Alfa
EXTD=Phil Manzanera
EXTT0=Enrique Bunbury
EXTT1=Enrique Bunbury
EXTT2=Enrique Bunbury
EXTT3=Enrique Bunbury
EXTT4=Enrique Bunbury
EXTT5=Enrique Bunbury
EXTT6=Enrique Bunbury
EXTT7=Enrique Bunbury
EXTT8=Enrique Bunbury
EXTT9=Enrique Bunbury
EXTT10=Enrique Bunbury
EXTT11=Enrique Bunbury
PLAYORDER=
